<?xml version="1.0" encoding="iso-8859-1"?>
<!-- Generator: Adobe Illustrator 19.0.0, SVG Export Plug-In . SVG Version: 6.00 Build 0)  -->
<svg version="1.1" id="Layer_1" xmlns="http://www.w3.org/2000/svg" xmlns:xlink="http://www.w3.org/1999/xlink" x="0px" y="0px"
	 viewBox="0 0 512 512" style="enable-background:new 0 0 512 512;" xml:space="preserve">
<path style="fill:#969696;" d="M376.967,0h-33.758v455.736h33.758c18.567,0,33.758-15.191,33.758-33.758V33.758
	C410.726,15.191,395.534,0,376.967,0z"/>
<path style="fill:#B9B9B9;" d="M311.401,256.001l65.567-222.242C376.967,15.191,361.776,0,343.209,0H317.89l-90.022,23.74L137.846,0
	H78.769C60.202,0,45.011,15.191,45.011,33.758v388.219c0,18.567,15.191,33.758,33.758,33.758h264.44
	c18.567,0,33.758-15.191,33.758-33.758L311.401,256.001z"/>
<polygon style="fill:#D5F6F5;" points="376.967,33.758 376.967,421.978 343.209,421.978 275.692,227.869 343.209,33.758 "/>
<rect x="78.769" y="33.758" style="fill:#FFFFFF;" width="264.44" height="388.221"/>
<polygon style="fill:#737373;" points="301.011,0 309.451,56.264 275.692,56.264 253.187,28.132 275.692,0 "/>
<rect x="146.285" style="fill:#969696;" width="129.407" height="56.264"/>
<path style="fill:#4D4D4D;" d="M292.572,109.715H163.165c-13.961,0-25.319-11.359-25.319-25.319V0h16.879v84.396
	c0,4.653,3.785,8.44,8.44,8.44h129.407c4.654,0,8.44-3.787,8.44-8.44V0h16.879v84.396
	C317.89,98.356,306.532,109.715,292.572,109.715z"/>
<g>
	<path style="fill:#B9B9B9;" d="M309.451,191.297H146.285c-4.661,0-8.44-3.779-8.44-8.44c0-4.661,3.779-8.44,8.44-8.44h163.165
		c4.662,0,8.44,3.779,8.44,8.44C317.89,187.518,314.112,191.297,309.451,191.297z"/>
	<path style="fill:#B9B9B9;" d="M309.451,236.308H146.285c-4.661,0-8.44-3.779-8.44-8.44c0-4.661,3.779-8.44,8.44-8.44h163.165
		c4.662,0,8.44,3.779,8.44,8.44C317.89,232.53,314.112,236.308,309.451,236.308z"/>
	<path style="fill:#B9B9B9;" d="M227.868,281.319h-81.583c-4.661,0-8.44-3.779-8.44-8.44c0-4.661,3.779-8.44,8.44-8.44h81.583
		c4.661,0,8.44,3.779,8.44,8.44C236.308,277.541,232.529,281.319,227.868,281.319z"/>
</g>
<path style="fill:#02ACAB;" d="M354.462,286.945V512c62.149,0,112.528-50.379,112.528-112.528S416.611,286.945,354.462,286.945z"/>
<path style="fill:#42C8C6;" d="M354.462,286.945c43.503,0,78.769,50.379,78.769,112.528S397.965,512,354.462,512
	c-62.149,0-112.528-50.379-112.528-112.528S292.313,286.945,354.462,286.945z"/>
<path style="fill:#FFFFFF;" d="M410.726,382.593h-39.385v-39.385c0-9.322-7.557-16.879-16.879-16.879
	c-9.322,0-16.879,7.557-16.879,16.879v39.385h-39.385c-9.322,0-16.879,7.557-16.879,16.879s7.557,16.879,16.879,16.879h39.385
	v39.385c0,9.322,7.557,16.879,16.879,16.879c9.322,0,16.879-7.557,16.879-16.879v-39.385h39.385c9.322,0,16.879-7.557,16.879-16.879
	S420.047,382.593,410.726,382.593z"/>
<g>
</g>
<g>
</g>
<g>
</g>
<g>
</g>
<g>
</g>
<g>
</g>
<g>
</g>
<g>
</g>
<g>
</g>
<g>
</g>
<g>
</g>
<g>
</g>
<g>
</g>
<g>
</g>
<g>
</g>
</svg>
